{"glyphs":{":":{"x_min":0,"x_max":158,"ha":158,"o":"m 79 -5 q 66 -5 58 4 q 49 14 49 26 q 49 39 58 48 q 67 57 79 57 q 92 57 101 47 q 109 38 109 26 q 109 13 100 4 q 91 -5 79 -5 z m 79 302 q 66 302 58 312 q 49 321 49 333 q 49 346 58 355 q 67 364 79 364 q 92 364 101 354 q 109 345 109 333 q 109 320 100 311 q 91 302 79 302 z"},"$":{"x_min":0,"x_max":488,"ha":488,"o":"m 213 417 l 213 679 q 154 668 120 629 q 89 594 89 551 q 89 533 95 515 q 119 446 213 417 z m 253 35 q 323 47 363 100 q 400 148 400 204 q 400 270 350 317 q 316 349 257 365 l 253 366 z m 253 -60 l 213 -60 l 213 -9 q 172 -9 111 11 q 84 20 53 35 l 68 71 q 112 53 124 49 q 179 31 213 31 l 213 375 q 148 394 110 427 q 49 480 49 552 q 49 610 90 657 q 135 707 213 720 l 213 763 l 253 763 l 253 723 l 255 723 q 309 723 367 702 q 386 696 423 681 l 407 644 q 374 658 354 665 q 299 682 255 682 l 253 682 l 253 407 q 265 405 280 400 q 345 380 382 342 q 439 284 439 204 q 439 134 395 75 q 341 5 253 -7 z"},"?":{"x_min":0,"x_max":500,"ha":500,"o":"m 133 89 l 97 89 l 97 114 q 97 223 204 315 q 228 335 281 379 q 350 438 373 482 q 392 519 392 556 q 392 578 378 602 q 357 638 307 656 q 279 665 249 665 q 169 665 109 591 l 78 617 q 120 673 178 693 q 213 706 246 706 q 329 706 386 656 q 433 610 433 555 q 433 453 314 355 l 251 302 q 233 287 208 262 q 180 233 169 214 q 138 168 138 114 l 138 91 z m 122 -5 q 105 -5 95 8 q 90 17 90 25 q 90 42 104 52 q 112 57 121 57 q 136 57 146 42 q 151 34 151 26 q 151 9 135 -1 q 128 -5 122 -5 z"},"<":{"x_min":0,"x_max":568,"ha":568,"o":"m 503 110 l 49 316 l 49 350 l 503 555 l 519 518 l 109 333 l 519 147 z"},"'":{"x_min":0,"x_max":138,"ha":138,"o":"m 89 516 l 49 516 l 49 705 l 89 705 z"},"=":{"x_min":0,"x_max":566,"ha":566,"o":"m 518 381 l 49 381 l 49 422 l 518 422 z m 518 245 l 49 245 l 49 285 l 518 285 z"},"a":{"x_min":0,"x_max":594,"ha":594,"o":"m 297 -7 q 229 -7 172 27 q 116 61 82 117 q 49 174 49 243 q 49 312 82 369 q 116 426 172 460 q 229 494 297 494 q 344 494 386 478 q 427 462 458 436 q 489 411 505 380 l 505 469 l 545 469 l 545 -5 l 505 -5 l 505 106 q 489 76 458 51 q 427 25 386 9 q 344 -7 297 -7 z m 297 33 q 354 33 402 62 q 449 90 477 137 q 504 185 504 243 q 504 301 477 349 q 449 396 402 425 q 354 453 297 453 q 239 453 192 425 q 145 397 117 349 q 89 302 89 243 q 89 185 117 137 q 145 89 192 61 q 239 33 297 33 z"},"L":{"x_min":0,"x_max":513,"ha":513,"o":"m 464 -4 l 49 -4 l 49 705 l 89 705 l 89 36 l 464 36 z"},"3":{"x_min":0,"x_max":556,"ha":556,"o":"m 366 442 q 423 420 464 363 q 507 302 507 227 q 507 212 505 198 q 491 100 417 42 q 354 -8 275 -8 q 260 -8 246 -6 q 180 2 129 43 q 79 83 56 146 l 49 166 l 86 179 q 100 142 114 119 q 128 96 154 75 q 196 41 250 34 q 263 32 275 32 q 341 32 393 73 q 454 121 465 203 q 467 215 467 227 q 467 290 431 340 q 389 400 314 417 q 296 420 275 420 q 258 420 237 418 l 240 460 q 250 459 254 459 q 257 458 260 458 q 263 458 269 458 q 289 458 307 463 q 329 468 349 479 q 361 486 371 496 q 396 519 400 547 q 401 554 401 561 q 401 581 390 602 q 385 611 377 619 q 342 655 290 661 q 279 663 268 663 q 227 663 188 641 l 170 631 l 150 666 q 183 686 209 695 q 234 703 270 703 q 282 703 294 702 q 361 693 406 646 q 417 634 425 622 q 441 592 441 561 q 441 550 439 540 q 432 499 398 466 q 385 454 369 444 q 368 443 366 442 z"},";":{"x_min":0,"x_max":166,"ha":166,"o":"m 81 302 q 68 302 59 312 q 50 321 50 333 q 50 346 59 355 q 68 364 81 364 q 93 364 102 354 q 111 345 111 333 q 111 320 102 311 q 93 302 81 302 z m 90 -45 l 58 -27 l 69 -8 q 76 -5 76 -4 l 76 -4 q 65 -4 57 4 q 49 12 49 23 q 49 34 57 42 q 66 51 78 51 q 92 51 104 41 q 117 31 117 14 q 117 4 111 -7 z"},"J":{"x_min":0,"x_max":593,"ha":593,"o":"m 297 -5 q 228 -5 172 29 q 116 63 82 120 q 49 177 49 246 l 49 274 l 89 273 l 89 246 q 89 187 117 139 q 145 92 192 64 q 240 36 297 36 q 340 36 377 52 q 415 68 444 97 q 478 131 491 170 q 504 209 504 257 l 504 705 l 544 705 l 544 258 q 544 143 472 68 q 438 34 393 15 q 348 -5 297 -5 z"},"V":{"x_min":0,"x_max":760,"ha":760,"o":"m 396 -5 l 362 -5 l 49 705 l 93 705 l 379 56 l 667 705 l 711 705 z"},"\"":{"x_min":0,"x_max":210,"ha":210,"o":"m 89 516 l 49 516 l 49 705 l 89 705 z m 162 516 l 122 516 l 122 705 l 162 705 z"},"7":{"x_min":0,"x_max":440,"ha":440,"o":"m 87 -14 l 50 2 q 108 136 139 205 q 169 275 186 313 q 203 352 218 388 q 234 424 262 487 q 290 550 339 665 l 49 665 l 49 705 l 392 705 l 392 684 l 384 667 q 326 533 296 466 q 267 398 251 363 q 237 329 221 292 q 205 256 175 188 q 146 120 87 -14 z"},"S":{"x_min":0,"x_max":488,"ha":488,"o":"m 218 -7 q 187 -7 151 1 q 133 5 111 13 q 92 20 71 29 l 53 37 l 68 74 q 89 64 99 60 q 110 56 124 51 q 144 45 161 41 q 191 33 218 33 q 263 33 299 50 q 334 67 358 95 q 382 125 393 161 q 399 183 399 206 q 399 219 397 233 q 391 275 359 310 q 328 344 269 363 q 247 370 224 374 q 148 395 107 432 q 65 470 54 516 q 49 536 49 555 q 49 574 54 593 q 64 629 92 660 q 118 689 159 707 q 200 725 253 725 q 289 725 330 715 q 347 712 367 705 q 385 699 404 690 l 423 683 l 407 646 q 387 654 377 658 q 367 662 354 667 q 336 672 320 676 q 284 684 253 684 q 209 684 176 670 q 143 656 121 633 q 100 610 93 582 q 89 568 89 554 q 89 540 93 526 q 102 490 136 460 q 170 430 233 414 q 281 402 324 383 q 366 364 396 331 q 426 297 437 240 q 439 224 439 208 q 439 179 432 150 q 419 105 389 69 q 359 35 316 14 q 273 -7 218 -7 z"},"}":{"x_min":0,"x_max":393,"ha":393,"o":"m 88 -57 l 69 -56 l 49 -54 l 52 -14 q 64 -15 68 -15 q 71 -15 75 -15 q 79 -16 85 -16 q 117 -16 134 -4 q 150 8 158 28 q 167 49 169 76 q 171 103 171 132 q 172 173 177 212 q 181 251 198 282 q 216 313 244 324 q 216 335 198 367 q 181 398 177 437 q 172 476 171 517 q 171 546 169 573 q 167 600 158 621 q 150 641 134 653 q 117 665 85 665 l 72 664 l 52 662 l 49 703 l 88 705 q 132 705 157 689 q 182 673 194 646 q 205 619 208 586 q 211 554 211 518 q 212 486 215 456 q 218 426 229 402 q 239 378 261 364 q 283 349 324 349 l 344 349 l 344 299 l 324 299 q 283 299 261 285 q 239 271 229 247 q 218 223 215 193 q 212 163 211 131 q 211 95 208 62 q 205 30 194 3 q 182 -24 157 -41 q 132 -57 88 -57 z"},"Z":{"x_min":0,"x_max":542,"ha":542,"o":"m 467 -5 l 49 -4 l 49 21 q 124 145 162 209 q 201 273 221 306 q 241 340 260 371 q 280 405 320 471 q 359 537 437 666 l 74 666 l 74 706 l 493 706 l 493 681 l 484 668 l 104 35 l 467 35 z"},"x":{"x_min":0,"x_max":522,"ha":522,"o":"m 473 -5 l 418 -5 l 260 199 l 102 -5 l 51 -5 l 234 231 l 49 470 l 100 470 l 260 264 l 420 470 l 471 470 l 286 231 l 444 28 z"},")":{"x_min":0,"x_max":296,"ha":296,"o":"m 81 -106 l 49 -83 q 129 25 168 121 q 207 216 207 313 q 207 413 168 500 q 129 588 49 681 l 79 708 l 93 692 q 247 511 247 313 q 247 208 206 107 q 166 6 81 -106 z"},"&":{"x_min":0,"x_max":692,"ha":692,"o":"m 281 -4 q 202 -4 139 45 q 66 104 51 202 q 49 217 49 231 q 49 311 98 375 q 143 430 195 449 l 190 452 q 118 493 118 558 q 118 589 133 618 q 163 670 209 690 q 236 702 263 702 q 310 702 344 670 q 372 644 380 597 l 382 577 l 342 571 q 339 599 334 614 q 329 629 316 641 q 298 657 275 661 l 263 662 q 244 662 225 653 q 191 639 169 599 q 158 579 158 558 q 158 516 209 488 q 231 476 265 467 l 284 461 l 275 423 l 257 423 q 177 411 130 351 q 89 298 89 231 q 89 219 91 207 q 103 125 163 77 q 215 36 281 36 q 293 36 305 38 q 386 50 434 111 q 474 163 474 230 q 474 240 472 265 l 458 269 q 445 273 432 276 q 419 279 407 279 q 393 279 387 272 q 381 264 374 256 l 343 283 q 358 302 371 311 q 383 320 407 320 q 424 320 443 315 q 463 310 483 304 q 503 297 522 292 q 541 288 558 288 q 585 288 599 305 l 611 321 l 643 296 l 630 280 q 604 247 560 247 q 534 247 513 253 l 513 248 q 515 241 515 230 q 515 150 465 86 q 408 12 310 -2 q 295 -4 281 -4 z"},"_":{"x_min":0,"x_max":566,"ha":566,"o":"m 518 -38 l 49 -38 l 49 2 l 518 2 z"},"v":{"x_min":0,"x_max":552,"ha":552,"o":"m 293 -5 l 258 -5 l 49 470 l 93 470 l 276 56 l 459 470 l 503 470 z"},"O":{"x_min":0,"x_max":848,"ha":848,"o":"m 424 20 q 517 20 593 66 q 669 112 714 189 q 759 266 759 358 q 759 429 733 490 q 707 551 661 598 q 615 645 554 671 q 493 697 424 697 q 332 697 256 652 q 180 606 134 530 q 89 453 89 358 q 89 265 134 188 q 179 111 255 66 q 332 20 424 20 z m 424 -21 q 320 -21 235 31 q 150 82 99 168 q 49 254 49 358 q 49 463 100 549 q 150 635 235 686 q 320 737 424 737 q 528 737 613 686 q 698 635 748 549 q 799 463 799 358 q 799 254 749 168 q 698 83 613 31 q 528 -21 424 -21 z"},"(":{"x_min":0,"x_max":296,"ha":296,"o":"m 215 -106 q 130 6 90 107 q 49 208 49 313 q 49 511 203 692 l 217 708 l 247 681 q 167 588 128 500 q 89 413 89 313 q 89 216 128 121 q 167 25 247 -83 z"},"C":{"x_min":0,"x_max":744,"ha":744,"o":"m 424 -27 q 321 -27 236 24 q 150 76 100 162 q 49 248 49 352 q 49 457 100 542 q 150 628 236 680 q 321 731 424 731 q 497 731 555 708 q 614 684 671 638 l 646 606 q 616 630 591 646 q 566 661 533 672 q 480 690 424 690 q 331 690 255 645 q 179 600 134 523 q 89 446 89 352 q 89 258 134 182 q 179 105 255 59 q 331 14 424 14 q 486 14 545 37 q 604 60 652 104 l 667 119 l 695 89 q 662 58 632 37 q 602 16 562 0 q 495 -27 424 -27 z"},"W":{"x_min":0,"x_max":1026,"ha":1026,"o":"m 716 -5 l 513 624 l 310 -5 l 274 -4 l 49 705 l 91 705 l 292 71 l 498 707 l 528 707 l 734 71 l 935 705 l 977 705 l 752 -4 z"},"A":{"x_min":0,"x_max":759,"ha":759,"o":"m 710 -5 l 667 -4 l 535 293 l 225 293 l 92 -4 l 49 -4 q 97 105 121 150 q 128 165 136 182 q 152 217 197 331 l 363 705 l 397 705 z m 518 334 l 380 644 l 243 334 z"},"f":{"x_min":0,"x_max":302,"ha":302,"o":"m 127 -5 l 87 -5 q 87 84 87 126 q 87 167 87 188 q 87 210 86 230 q 86 252 86 298 q 86 344 86 436 l 49 436 l 49 477 l 86 477 l 86 562 q 86 576 89 588 q 99 625 129 646 q 159 667 197 667 q 215 667 234 664 l 253 658 l 244 619 q 234 621 231 622 q 224 625 218 626 q 211 627 201 627 l 198 627 q 172 627 152 613 q 134 601 128 578 q 126 569 126 559 l 126 477 l 201 477 l 201 436 l 126 436 q 126 344 126 298 q 126 252 126 230 q 127 210 127 188 q 127 167 127 126 q 127 84 127 -5 z"},"Q":{"x_min":0,"x_max":848,"ha":848,"o":"m 424 20 q 517 20 593 66 q 669 112 714 189 q 759 266 759 358 q 759 429 733 490 q 707 551 661 598 q 615 645 554 671 q 494 697 424 697 q 333 697 256 652 q 180 606 135 530 q 89 453 89 358 q 89 265 134 188 q 179 111 255 66 q 332 20 424 20 z m 639 -114 q 604 -114 566 -99 q 528 -85 487 -66 q 446 -47 404 -31 q 362 -16 326 -16 q 305 -16 286 -23 q 268 -30 252 -45 l 238 -60 l 209 -31 q 230 -9 244 1 q 258 11 267 14 q 211 39 159 91 q 107 143 78 211 q 49 280 49 358 q 49 437 78 506 q 107 575 159 626 q 210 678 278 708 q 347 737 424 737 q 502 737 570 708 q 638 678 689 626 q 741 575 770 506 q 799 437 799 358 q 799 280 770 211 q 741 143 689 91 q 596 -4 475 -17 l 503 -29 q 542 -47 576 -60 q 611 -73 638 -73 q 662 -73 678 -59 l 692 -45 l 720 -74 q 698 -96 682 -105 q 667 -114 639 -114 z"},"w":{"x_min":0,"x_max":889,"ha":889,"o":"m 632 -4 q 591 -4 552 13 q 513 31 482 67 q 469 83 458 101 q 448 118 444 129 q 440 118 430 101 q 420 83 406 67 q 376 31 337 13 q 297 -4 257 -4 q 216 -4 177 13 q 137 31 107 67 q 54 130 49 225 l 49 469 l 89 469 q 89 249 89 233 q 89 192 102 156 q 115 120 138 93 q 162 64 193 50 q 224 36 256 36 q 289 36 320 50 q 351 64 375 93 q 398 120 411 156 q 424 192 424 233 l 424 249 l 424 469 l 464 469 l 464 232 q 467 148 513 93 q 537 64 568 50 q 599 36 632 36 q 665 36 696 50 q 727 64 750 93 q 773 120 786 156 q 799 192 799 233 l 799 469 l 840 469 l 840 224 q 834 130 782 67 q 751 31 712 13 q 673 -4 632 -4 z"},"-":{"x_min":0,"x_max":322,"ha":322,"o":"m 273 313 l 49 313 l 49 354 l 273 354 z"},"E":{"x_min":0,"x_max":506,"ha":506,"o":"m 452 -5 l 68 -5 l 49 -4 l 49 705 l 68 705 l 457 705 l 457 665 l 88 665 l 88 388 l 454 388 l 454 348 l 88 348 l 88 36 l 452 36 z"},"s":{"x_min":0,"x_max":376,"ha":376,"o":"m 170 -4 q 148 -4 124 1 q 111 4 96 10 q 84 14 76 17 q 67 20 50 28 l 65 65 l 84 57 q 97 52 108 47 q 122 43 133 41 q 152 36 170 36 q 201 36 225 48 q 249 61 264 80 q 279 100 285 125 q 287 136 287 146 q 287 160 283 173 q 276 198 255 219 q 233 239 195 250 l 161 257 q 118 271 91 294 q 65 317 56 346 q 49 364 49 382 q 49 394 51 405 q 58 435 79 458 q 98 479 127 492 q 156 505 194 505 q 219 505 248 499 q 259 496 273 491 q 282 488 288 486 q 294 483 301 480 q 306 478 317 473 l 302 436 l 284 444 q 272 449 261 453 q 250 456 241 458 q 240 458 238 459 q 215 464 194 464 q 166 464 144 455 q 122 446 108 431 q 95 416 91 397 q 89 390 89 383 q 89 371 93 359 q 101 339 122 321 q 144 304 182 293 q 188 292 194 291 q 206 289 218 285 q 263 270 288 243 q 313 217 322 184 q 327 165 327 146 q 327 131 324 117 q 316 83 295 55 q 275 28 243 12 q 211 -4 170 -4 z"},">":{"x_min":0,"x_max":568,"ha":568,"o":"m 65 110 l 49 147 l 459 333 l 49 518 l 65 555 l 519 350 l 519 316 z"},"l":{"x_min":0,"x_max":138,"ha":138,"o":"m 89 -5 l 49 -5 l 49 688 l 89 688 z"},"8":{"x_min":0,"x_max":527,"ha":527,"o":"m 264 34 q 312 34 352 58 q 392 82 415 122 q 438 162 438 210 q 438 259 415 299 q 392 339 352 363 q 312 387 264 387 q 216 387 176 364 q 136 340 113 300 q 89 259 89 210 q 89 162 112 122 q 136 82 176 58 q 215 34 264 34 z m 264 429 q 312 429 346 463 q 380 498 380 547 q 380 596 346 630 q 312 665 264 665 q 215 665 181 630 q 147 596 147 547 q 147 498 181 463 q 215 429 264 429 z m 264 -6 q 204 -6 156 23 q 107 52 78 101 q 49 150 49 210 q 49 281 89 336 q 128 392 181 412 q 153 426 130 464 q 107 501 107 547 q 107 612 153 659 q 199 705 264 705 q 329 705 375 659 q 420 612 420 547 q 420 481 375 435 q 357 417 346 412 q 399 392 439 336 q 479 281 479 210 q 479 151 450 102 q 421 52 372 23 q 324 -6 264 -6 z"},"\\":{"x_min":0,"x_max":683,"ha":683,"o":"m 603 -13 l 49 691 l 80 716 l 634 12 z"},"e":{"x_min":0,"x_max":554,"ha":554,"o":"m 170 82 l 417 420 q 393 438 361 448 q 330 458 297 458 q 285 458 272 457 q 190 447 134 378 q 111 349 100 315 q 89 282 89 248 q 89 235 91 223 q 101 140 169 83 z m 297 -2 q 256 -2 218 11 q 179 24 145 51 q 63 119 51 218 q 49 233 49 248 q 49 289 62 328 q 75 368 102 402 q 169 485 268 497 q 282 499 297 499 q 337 499 377 485 q 416 472 450 445 l 472 427 l 205 61 q 247 38 297 38 q 310 38 322 40 q 405 50 461 119 l 473 135 l 505 110 q 434 12 327 0 q 312 -2 297 -2 z"},"b":{"x_min":0,"x_max":594,"ha":594,"o":"m 297 -7 q 250 -7 209 9 q 167 25 136 51 q 105 76 89 106 l 89 -5 l 49 -5 l 49 688 l 89 688 l 89 380 q 105 411 136 436 q 167 462 209 478 q 250 494 297 494 q 366 494 422 460 q 479 426 512 369 q 545 312 545 243 q 545 174 512 117 q 479 61 422 27 q 366 -7 297 -7 z m 297 33 q 355 33 403 62 q 450 90 478 137 q 505 185 505 243 q 505 302 478 349 q 450 397 403 425 q 355 453 297 453 q 240 453 192 425 q 145 396 117 349 q 90 301 90 243 q 90 200 106 162 q 122 124 151 95 q 179 66 217 50 q 254 33 297 33 z"},"%":{"x_min":0,"x_max":700,"ha":700,"o":"m 80 -13 l 49 12 l 603 716 l 634 691 z m 523 -5 q 470 -5 432 33 q 394 72 394 125 q 394 178 432 217 q 470 255 523 255 q 576 255 614 217 q 651 178 651 125 q 651 72 614 33 q 576 -5 523 -5 z m 523 36 q 560 36 585 62 q 611 87 611 125 q 611 163 585 188 q 560 214 523 214 q 486 214 460 188 q 435 163 435 125 q 435 87 460 62 q 486 36 523 36 z m 178 441 q 125 441 88 479 q 50 518 50 571 q 50 625 88 663 q 126 701 178 701 q 231 701 269 662 q 307 624 307 571 q 307 518 269 479 q 231 441 178 441 z m 178 481 q 215 481 241 508 q 267 534 267 571 q 267 608 241 634 q 215 660 178 660 q 142 660 116 634 q 90 608 90 571 q 90 533 115 507 q 141 481 178 481 z"},"m":{"x_min":0,"x_max":888,"ha":888,"o":"m 839 -5 l 799 -5 l 799 243 q 799 332 750 394 q 726 423 695 438 q 664 454 631 454 q 599 454 568 438 q 537 423 513 394 q 490 364 477 326 q 464 287 464 243 l 464 -5 l 424 -5 l 423 243 q 423 287 410 326 q 397 364 375 394 q 351 423 320 438 q 289 454 256 454 q 224 454 193 438 q 162 423 138 394 q 95 340 89 260 l 89 -5 l 49 -5 l 49 469 l 89 469 l 89 396 q 92 399 106 418 q 137 456 176 475 q 215 494 256 494 q 297 494 336 475 q 375 456 406 418 q 433 384 444 353 q 455 384 481 418 q 512 456 551 475 q 590 494 631 494 q 672 494 711 475 q 750 456 781 418 q 834 352 839 252 z"},"#":{"x_min":0,"x_max":732,"ha":732,"o":"m 166 256 l 216 448 l 95 448 l 95 488 l 227 488 l 283 703 l 324 703 l 267 488 l 518 488 l 575 703 l 615 703 l 559 488 l 684 488 l 684 448 l 548 448 l 498 256 l 637 256 l 637 216 l 487 216 l 429 -5 l 388 -5 l 446 216 l 195 216 l 137 -5 l 97 -5 l 155 216 l 49 216 l 49 256 z m 256 448 l 206 256 l 457 256 l 507 448 z"},",":{"x_min":0,"x_max":166,"ha":166,"o":"m 90 -45 l 58 -27 l 69 -8 q 76 -5 76 -4 l 76 -4 q 65 -4 57 4 q 49 12 49 23 q 49 34 57 42 q 66 51 78 51 q 92 51 104 41 q 117 31 117 14 q 117 4 111 -7 z"},"n":{"x_min":0,"x_max":513,"ha":513,"o":"m 464 -5 l 423 -5 l 423 243 q 423 287 410 326 q 397 364 375 394 q 351 423 320 438 q 289 454 256 454 q 224 454 193 438 q 162 423 138 394 q 95 340 89 260 l 89 -5 l 49 -5 l 49 469 l 89 469 l 89 395 q 92 399 106 418 q 137 456 176 475 q 215 494 256 494 q 297 494 336 475 q 375 456 406 418 q 459 352 464 252 z"},"h":{"x_min":0,"x_max":513,"ha":513,"o":"m 464 -5 l 423 -5 l 423 243 q 423 287 410 326 q 397 364 375 394 q 351 423 320 438 q 289 454 256 454 q 224 454 193 438 q 162 423 138 394 q 95 340 89 260 l 89 -5 l 49 -5 l 49 688 l 89 688 l 89 395 q 92 399 106 418 q 137 456 176 475 q 215 494 256 494 q 297 494 336 475 q 375 456 406 418 q 459 352 464 252 z"},"z":{"x_min":0,"x_max":399,"ha":399,"o":"m 333 -5 l 49 -5 l 49 21 q 130 156 167 211 q 178 229 191 250 q 217 292 294 429 l 65 429 l 65 469 l 350 469 l 350 443 l 104 36 l 333 36 z"},"B":{"x_min":0,"x_max":529,"ha":529,"o":"m 219 424 l 219 425 q 263 425 292 432 q 321 439 346 460 q 370 479 379 500 q 388 521 388 549 q 388 597 345 632 q 302 666 239 666 l 89 666 l 89 424 z m 227 35 q 287 35 335 58 q 384 81 412 119 q 440 158 440 204 q 440 245 427 275 q 413 306 379 333 q 344 362 304 373 q 264 384 211 384 l 89 384 l 89 36 z m 227 -5 l 49 -5 l 49 705 l 239 707 q 314 707 368 664 q 423 621 428 557 l 428 534 q 425 489 398 455 q 371 420 334 405 q 395 384 436 335 q 478 285 480 220 l 480 200 q 479 143 444 96 q 410 50 353 22 q 295 -5 227 -5 z"},"K":{"x_min":0,"x_max":551,"ha":551,"o":"m 89 -5 l 49 -5 l 49 706 l 89 706 l 89 341 l 446 705 l 502 705 l 232 429 q 278 355 303 315 q 328 274 342 250 q 356 227 372 202 q 387 177 415 132 q 443 87 500 -4 l 452 -4 l 203 399 q 186 381 174 370 q 162 358 156 352 q 149 345 143 338 q 136 331 123 318 q 111 305 89 283 z"},"R":{"x_min":0,"x_max":541,"ha":541,"o":"m 178 327 q 228 327 274 333 q 277 333 279 333 q 280 333 282 334 q 283 334 286 334 q 356 348 396 391 q 421 419 432 453 q 439 475 439 497 q 439 508 437 520 q 430 561 397 594 q 364 625 329 640 q 293 656 255 661 q 217 666 176 666 l 89 665 l 89 328 q 104 328 130 328 z m 492 -5 l 444 -5 l 263 290 q 224 287 180 287 l 129 287 q 110 288 89 288 l 89 -5 l 49 -5 l 49 705 l 71 705 q 102 705 124 706 l 177 707 q 222 707 264 701 q 307 695 347 677 q 387 659 425 623 q 468 581 477 526 q 479 512 479 497 q 479 468 470 440 q 457 398 424 363 q 378 313 306 297 l 475 21 z"},"T":{"x_min":0,"x_max":513,"ha":513,"o":"m 276 -5 l 236 -5 l 236 665 l 49 665 l 49 705 l 464 705 l 464 665 l 276 665 z"},"P":{"x_min":0,"x_max":528,"ha":528,"o":"m 181 328 q 236 328 286 335 q 356 349 396 392 q 421 420 432 454 q 439 476 439 498 q 439 509 437 521 q 431 562 397 595 q 364 626 329 641 q 293 657 255 662 q 217 667 176 667 l 89 666 l 89 329 q 104 329 130 329 z m 89 -5 l 49 -5 l 49 706 l 71 706 q 102 706 125 707 l 178 708 q 222 708 264 702 q 307 696 347 678 q 388 660 425 624 q 468 582 477 527 q 479 513 479 498 q 479 469 470 441 q 457 399 424 364 q 377 312 293 295 q 236 288 177 288 l 129 288 q 111 289 89 289 z"},"|":{"x_min":0,"x_max":138,"ha":138,"o":"m 89 -54 l 49 -54 l 49 703 l 89 703 z"},"t":{"x_min":0,"x_max":299,"ha":299,"o":"m 170 -5 l 130 -5 q 130 84 130 126 q 130 167 130 189 q 130 210 129 230 q 129 252 129 298 q 129 344 129 436 l 49 436 l 49 477 l 129 477 l 129 579 l 169 579 l 169 477 l 250 477 l 250 436 l 169 436 z"},"M":{"x_min":0,"x_max":692,"ha":692,"o":"m 644 -5 l 604 -5 l 604 620 q 557 536 533 494 q 509 453 495 431 q 482 409 468 384 q 454 359 428 312 q 403 264 356 173 l 336 173 q 255 319 223 383 q 213 403 201 425 q 178 469 89 619 l 89 -5 l 49 -5 l 49 705 l 87 705 l 346 238 l 605 705 l 644 705 z"},"g":{"x_min":0,"x_max":594,"ha":594,"o":"m 297 33 q 354 33 401 62 q 449 90 477 137 q 505 185 505 243 q 505 301 477 349 q 449 397 401 425 q 354 453 297 453 q 239 453 192 425 q 145 396 117 349 q 89 301 89 243 q 89 186 117 138 q 145 90 192 62 q 240 33 297 33 z m 310 -177 l 302 -177 q 203 -175 128 -99 q 114 -84 103 -67 q 91 -50 83 -30 l 75 -12 l 111 4 q 114 -2 115 -4 q 120 -16 125 -25 q 129 -33 136 -44 q 146 -59 158 -71 q 220 -135 303 -137 l 309 -137 q 347 -137 384 -123 q 421 -108 452 -80 q 469 -63 482 -43 q 495 -24 500 -12 q 505 0 505 25 l 505 106 q 498 92 472 66 q 438 32 394 12 q 349 -7 297 -7 q 246 -7 200 12 q 155 32 122 66 q 88 101 68 146 q 49 192 49 243 q 49 295 68 341 q 88 386 122 420 q 155 455 200 474 q 246 494 297 494 q 349 494 394 474 q 438 455 472 420 q 498 395 505 380 l 505 469 l 545 469 l 545 23 q 545 -3 538 -23 q 530 -43 515 -65 q 500 -89 479 -109 q 442 -144 399 -160 q 355 -177 310 -177 z"},"j":{"x_min":0,"x_max":199,"ha":199,"o":"m 68 -184 l 49 -147 q 57 -144 60 -142 q 70 -137 77 -131 q 84 -126 90 -115 q 99 -100 100 -79 l 99 469 l 139 469 q 139 361 139 310 q 139 260 139 234 q 140 208 140 184 q 140 157 140 100 q 140 43 141 -80 q 137 -146 85 -174 z m 120 517 q 107 517 98 526 q 89 535 89 547 q 89 560 98 569 q 107 578 120 578 q 133 578 142 569 q 150 560 150 547 q 150 535 141 526 q 132 517 120 517 z"},"i":{"x_min":0,"x_max":159,"ha":159,"o":"m 99 -5 l 59 -5 l 59 469 l 99 469 z m 79 517 q 67 517 58 526 q 49 535 49 547 q 49 560 58 569 q 66 578 79 578 q 91 578 101 569 q 110 561 110 547 q 110 535 101 526 q 92 517 79 517 z"},"y":{"x_min":0,"x_max":532,"ha":532,"o":"m 182 -174 q 198 -134 205 -117 q 212 -100 215 -92 q 219 -83 222 -75 q 226 -66 233 -48 q 240 -30 254 5 l 49 469 l 93 469 l 275 57 l 439 469 l 483 469 l 226 -173 z"},"@":{"x_min":0,"x_max":951,"ha":951,"o":"m 475 -161 q 393 -161 319 -131 q 245 -101 188 -47 q 127 8 90 85 q 54 162 49 251 l 49 271 q 49 354 78 428 q 108 503 161 561 q 216 623 292 659 q 368 696 457 701 l 475 701 q 557 701 631 671 q 706 642 763 588 q 824 532 860 455 q 897 379 901 289 l 902 267 q 902 152 852 79 q 830 46 804 26 q 763 -4 722 -4 q 710 -4 699 -1 q 661 10 653 52 l 653 109 q 651 106 642 94 q 632 83 620 69 q 586 35 541 16 q 495 -4 444 -4 q 393 -4 348 16 q 302 35 269 69 q 235 104 216 149 q 196 195 196 247 q 196 298 216 344 q 235 389 269 423 q 302 458 348 477 q 393 497 444 497 q 495 497 541 477 q 586 458 620 423 q 632 411 642 399 q 651 387 653 383 l 653 472 l 693 472 l 693 56 q 696 36 723 36 q 750 36 780 59 q 802 75 820 103 q 862 166 862 267 l 861 288 q 857 369 824 438 q 792 507 736 559 q 684 606 617 634 q 551 661 476 661 l 458 660 q 377 656 309 623 q 241 589 190 534 q 143 481 116 414 q 89 347 89 271 l 89 252 q 93 171 126 102 q 159 33 215 -18 q 267 -66 333 -93 q 400 -120 475 -120 l 513 -119 l 514 -160 z m 444 37 q 502 37 549 65 q 596 93 624 140 q 652 188 652 247 q 652 305 624 352 q 596 400 549 428 q 502 457 444 457 q 386 457 339 428 q 292 400 264 352 q 236 305 236 247 q 236 188 264 141 q 292 93 339 65 q 386 37 444 37 z"},".":{"x_min":0,"x_max":158,"ha":158,"o":"m 79 -5 q 66 -5 58 4 q 49 14 49 26 q 49 39 58 48 q 67 57 79 57 q 92 57 101 47 q 109 38 109 26 q 109 13 100 4 q 91 -5 79 -5 z"},"p":{"x_min":0,"x_max":595,"ha":595,"o":"m 298 33 q 355 33 402 62 q 450 90 478 137 q 506 185 506 243 q 506 301 478 349 q 450 397 403 425 q 355 453 298 453 q 241 453 193 425 q 146 397 118 349 q 90 301 90 243 q 90 186 118 138 q 146 90 193 62 q 240 33 298 33 z m 89 -179 l 49 -179 l 49 469 l 89 469 l 89 379 q 112 422 170 458 q 228 494 298 494 q 367 494 423 460 q 479 426 512 369 q 546 312 546 243 q 546 174 512 117 q 479 61 423 27 q 367 -7 298 -7 q 227 -7 169 29 q 111 65 89 107 z"},"X":{"x_min":0,"x_max":583,"ha":583,"o":"m 534 -5 l 487 -5 l 292 316 l 96 -5 l 49 -4 q 68 26 268 355 l 68 683 l 55 705 l 102 705 l 292 394 l 482 705 l 529 705 l 315 355 q 516 26 534 -5 z"},"*":{"x_min":0,"x_max":354,"ha":354,"o":"m 198 460 l 158 460 l 158 546 l 69 494 l 49 530 q 71 542 80 548 q 89 553 94 556 q 99 559 104 562 q 109 564 118 569 q 126 574 136 580 l 49 630 l 69 666 l 158 613 l 158 705 l 198 705 l 198 615 l 285 666 l 305 630 l 218 580 q 227 574 236 569 q 245 564 250 562 q 254 559 259 556 q 264 553 273 547 q 283 542 305 530 l 285 494 l 198 544 z"},"Y":{"x_min":0,"x_max":574,"ha":574,"o":"m 308 -5 l 267 -5 l 267 348 q 229 411 208 446 q 187 480 176 499 q 164 517 154 534 q 143 552 123 585 q 103 618 64 682 l 49 705 l 97 705 l 288 392 l 478 705 l 525 705 l 308 348 z"},"c":{"x_min":0,"x_max":553,"ha":553,"o":"m 296 -2 q 256 -2 217 11 q 178 24 144 51 q 63 119 51 218 q 49 233 49 249 q 49 289 62 329 q 75 368 102 402 q 169 485 267 497 q 282 499 296 499 q 337 499 376 485 q 416 472 450 445 l 466 433 l 441 401 l 425 414 q 396 436 364 447 q 331 458 298 458 q 285 458 272 457 q 189 447 133 378 q 111 349 100 316 q 89 283 89 249 q 89 236 91 223 q 101 140 168 83 q 198 60 231 49 q 264 38 298 38 q 310 38 322 40 q 404 50 460 119 l 473 135 l 504 110 l 492 94 q 425 12 327 0 q 312 -2 296 -2 z"},"!":{"x_min":0,"x_max":158,"ha":158,"o":"m 99 80 l 59 80 l 59 705 l 99 705 z m 79 -5 q 66 -5 58 4 q 49 14 49 26 q 49 39 58 48 q 67 57 79 57 q 92 57 101 47 q 109 38 109 26 q 109 13 100 4 q 91 -5 79 -5 z"},"/":{"x_min":0,"x_max":683,"ha":683,"o":"m 80 -13 l 49 12 l 603 716 l 634 691 z"},"[":{"x_min":0,"x_max":379,"ha":379,"o":"m 330 -85 l 51 -85 l 51 -81 l 49 -81 l 49 708 l 51 708 l 51 708 l 330 708 l 330 667 l 89 667 l 89 -44 l 330 -44 z"},"6":{"x_min":0,"x_max":525,"ha":525,"o":"m 261 26 q 310 26 350 50 q 389 73 413 113 q 436 153 436 203 q 436 252 413 292 q 389 332 350 356 q 310 379 261 379 q 213 379 173 356 q 133 332 110 292 q 86 252 86 203 q 86 154 110 114 q 133 74 173 50 q 212 26 261 26 z m 261 -14 q 217 -14 178 3 q 139 20 109 49 q 78 82 63 120 q 49 158 49 197 q 49 261 81 324 l 264 688 l 274 705 l 309 687 q 259 586 232 541 l 216 512 q 201 483 163 396 q 177 405 204 413 q 230 420 261 420 q 306 420 345 403 q 384 386 414 356 q 443 327 460 287 q 477 248 477 203 q 477 158 460 118 q 443 79 414 49 q 384 20 345 3 q 306 -14 261 -14 z"},"r":{"x_min":0,"x_max":259,"ha":259,"o":"m 92 -5 l 52 -5 l 52 232 l 49 232 l 52 239 l 52 469 l 92 469 l 92 381 q 124 438 210 477 l 210 433 q 157 406 126 359 q 95 312 93 251 l 92 241 z"},"2":{"x_min":0,"x_max":488,"ha":488,"o":"m 432 -7 l 49 -7 l 50 29 q 58 84 88 135 q 119 185 161 232 q 204 279 250 323 q 289 362 323 399 q 357 436 378 470 q 399 504 399 535 l 399 541 q 399 550 396 559 q 385 605 341 636 q 321 649 294 657 q 268 665 236 665 l 219 664 q 195 663 168 656 l 162 654 q 148 651 134 646 q 118 641 100 634 l 82 626 l 66 664 q 75 667 79 669 q 90 673 99 677 q 108 680 122 685 q 142 691 159 696 q 189 703 217 705 l 235 705 q 273 705 305 696 q 338 686 363 669 q 421 629 436 568 q 438 556 439 542 l 439 536 q 439 495 416 456 q 393 416 356 376 q 320 336 277 294 q 212 232 157 165 q 103 99 92 34 l 432 34 z"},"{":{"x_min":0,"x_max":393,"ha":393,"o":"m 305 -57 q 261 -57 236 -41 q 211 -24 199 3 q 188 30 185 62 q 182 95 182 131 q 181 163 178 193 q 175 223 165 247 q 154 271 132 285 q 110 299 69 299 l 49 299 l 49 349 l 69 349 q 110 349 132 364 q 154 378 165 402 q 175 426 178 456 q 181 486 182 518 q 182 554 185 586 q 188 619 199 646 q 211 673 236 689 q 261 705 305 705 l 344 703 l 341 662 l 321 664 l 308 665 q 276 665 260 653 q 243 641 235 621 q 227 600 224 573 q 222 546 222 517 q 221 476 217 437 q 212 398 195 367 q 177 335 149 324 q 177 313 195 282 q 212 251 217 212 q 221 173 222 132 q 222 103 224 76 q 227 49 235 28 q 243 8 260 -4 q 276 -16 308 -16 q 314 -16 318 -15 q 322 -15 325 -15 q 329 -15 341 -14 l 344 -54 l 324 -56 z"},"9":{"x_min":0,"x_max":525,"ha":525,"o":"m 264 310 q 312 310 352 334 q 392 357 415 397 q 438 438 438 487 q 438 535 415 575 q 392 615 353 639 q 313 663 264 663 q 215 663 175 639 q 136 615 113 575 q 89 535 89 487 q 89 437 113 397 q 137 357 176 333 q 216 310 264 310 z m 251 -16 l 216 2 q 267 103 293 149 l 309 177 q 324 207 363 293 q 349 284 322 277 q 295 270 264 270 q 220 270 180 287 q 141 304 112 333 q 83 363 66 402 q 49 442 49 487 q 49 532 66 571 q 83 611 112 640 q 141 670 180 687 q 220 704 264 704 q 308 704 347 687 q 387 670 416 640 q 447 608 462 570 q 477 532 477 492 q 477 428 444 365 l 261 2 z"}," ":{"x_min":0,"x_max":293,"ha":293,"o":""},"I":{"x_min":0,"x_max":138,"ha":138,"o":"m 89 -5 l 49 -5 l 49 705 l 89 705 z"},"H":{"x_min":0,"x_max":511,"ha":511,"o":"m 462 -4 l 421 -4 l 421 352 l 89 352 l 89 -4 l 49 -4 l 49 706 l 89 706 l 89 392 l 421 392 l 421 706 l 462 706 z"},"4":{"x_min":0,"x_max":438,"ha":438,"o":"m 349 298 l 349 625 l 108 298 z m 389 -7 l 349 -7 l 349 258 l 49 258 l 51 289 l 359 706 l 389 706 z"},"~":{"x_min":0,"x_max":397,"ha":397,"o":"m 269 324 q 248 324 227 331 q 206 337 186 345 q 167 352 151 357 q 135 362 121 362 q 103 362 92 350 l 79 335 l 49 362 q 68 384 82 394 q 97 403 120 403 q 139 403 159 397 q 179 391 198 383 q 217 376 234 371 q 251 365 267 365 q 290 365 304 383 l 316 399 l 348 375 q 328 347 311 336 q 295 324 269 324 z"},"D":{"x_min":0,"x_max":576,"ha":576,"o":"m 166 34 q 218 34 268 42 q 375 57 440 146 q 488 232 488 340 q 488 363 485 387 q 471 516 391 595 q 358 625 324 641 q 266 666 173 666 l 89 665 l 89 35 z m 167 -6 l 118 -5 q 86 -5 49 -5 l 49 705 l 122 706 l 193 705 q 251 705 308 689 q 365 673 418 624 q 464 579 491 519 q 527 436 527 341 q 527 222 473 126 l 473 125 q 416 43 332 15 q 270 -6 167 -6 z"},"^":{"x_min":0,"x_max":284,"ha":284,"o":"m 201 566 l 142 671 l 83 566 l 49 585 l 101 705 l 183 705 l 235 585 z"},"0":{"x_min":0,"x_max":692,"ha":692,"o":"m 346 -7 q 264 -7 197 41 q 129 89 89 170 q 49 250 49 348 q 49 445 89 526 q 129 607 197 655 q 264 703 346 703 q 428 703 496 655 q 563 606 603 526 q 643 445 643 348 q 643 251 603 170 q 563 89 496 41 q 428 -7 346 -7 z m 346 33 q 417 33 475 75 q 533 117 568 188 q 603 260 603 348 q 603 414 583 471 q 562 528 527 572 q 491 615 445 639 q 399 663 346 663 q 275 663 217 620 q 158 578 124 507 q 89 435 89 348 q 89 261 124 190 q 158 119 216 76 q 274 33 346 33 z"},"F":{"x_min":0,"x_max":506,"ha":506,"o":"m 88 -5 l 49 -4 l 49 705 l 68 705 l 457 705 l 457 665 l 88 665 l 88 388 l 454 388 l 454 348 l 88 348 z"},"`":{"x_min":0,"x_max":200,"ha":200,"o":"m 116 565 l 49 687 l 99 706 l 151 585 z"},"k":{"x_min":0,"x_max":405,"ha":405,"o":"m 311 -5 q 276 53 259 83 q 242 112 232 127 q 223 143 215 158 q 206 173 189 202 q 172 231 142 284 l 89 224 l 89 -5 l 49 -5 l 49 688 l 89 688 l 89 285 q 119 318 136 338 q 154 358 163 368 q 170 376 178 386 q 186 395 202 414 q 219 432 252 470 l 305 469 q 273 431 260 416 q 247 401 240 394 q 233 386 226 378 q 219 371 206 356 q 193 341 170 315 l 356 -4 z"},"u":{"x_min":0,"x_max":513,"ha":513,"o":"m 257 -4 q 215 -4 177 13 q 138 31 107 67 q 54 130 49 225 l 49 469 l 89 469 l 89 249 l 89 233 q 89 192 102 156 q 115 120 138 93 q 162 64 193 50 q 224 36 257 36 q 290 36 321 50 q 352 64 375 93 q 424 151 424 233 l 424 249 l 424 469 l 464 469 l 464 224 q 459 130 406 67 q 375 31 337 13 q 298 -4 257 -4 z"},"]":{"x_min":0,"x_max":379,"ha":379,"o":"m 328 -85 l 49 -85 l 49 -44 l 290 -44 l 290 667 l 49 667 l 49 708 l 328 708 l 328 708 l 330 708 l 330 -81 l 328 -81 z"},"U":{"x_min":0,"x_max":709,"ha":709,"o":"m 365 -4 l 344 -4 q 262 -1 196 46 q 129 93 90 171 q 51 250 49 345 l 49 705 l 89 705 l 89 351 q 89 264 125 192 q 160 121 219 79 q 278 36 350 36 q 466 36 542 126 q 579 170 599 228 q 620 285 620 351 l 620 705 l 660 705 l 660 343 q 658 249 619 171 q 580 93 514 46 q 448 -1 365 -4 z"},"o":{"x_min":0,"x_max":594,"ha":594,"o":"m 297 33 q 354 33 401 61 q 449 89 477 137 q 504 185 504 243 q 504 302 477 349 q 449 397 402 425 q 354 453 297 453 q 239 453 192 425 q 145 397 117 349 q 89 302 89 243 q 89 186 117 138 q 145 90 192 62 q 239 33 297 33 z m 297 -7 q 229 -7 172 27 q 116 61 82 118 q 49 175 49 243 q 49 312 82 369 q 116 426 172 460 q 228 494 297 494 q 365 494 421 460 q 478 426 511 369 q 545 312 545 243 q 545 192 525 146 q 506 101 472 66 q 438 32 393 12 q 348 -7 297 -7 z"},"N":{"x_min":0,"x_max":701,"ha":701,"o":"m 652 -4 l 614 -4 l 90 637 l 90 -4 l 49 -4 l 49 705 l 87 705 l 612 63 l 612 705 l 652 705 z"},"+":{"x_min":0,"x_max":566,"ha":566,"o":"m 303 81 l 263 81 l 263 306 l 49 306 l 49 347 l 263 347 l 263 554 l 303 554 l 303 347 l 518 347 l 518 306 l 303 306 z"},"G":{"x_min":0,"x_max":748,"ha":748,"o":"m 692 87 q 659 56 631 36 q 602 16 562 0 q 495 -27 424 -27 q 320 -27 235 24 q 150 76 99 162 q 49 248 49 352 q 49 457 99 543 q 150 629 235 680 q 320 731 424 731 q 494 731 552 708 q 611 686 670 638 l 646 606 q 615 631 591 646 q 566 661 533 672 q 480 690 424 690 q 332 690 256 645 q 180 600 134 523 q 89 446 89 352 q 89 259 134 182 q 179 105 255 59 q 332 14 424 14 q 486 14 545 37 q 604 60 652 104 l 653 321 l 693 321 z"},"q":{"x_min":0,"x_max":595,"ha":595,"o":"m 297 33 q 354 33 401 62 q 449 90 477 138 q 505 186 505 243 q 505 301 477 349 q 449 397 401 425 q 354 453 297 453 q 240 453 192 425 q 145 397 117 349 q 89 301 89 243 q 89 200 105 162 q 121 124 150 95 q 179 66 216 50 q 254 33 297 33 z m 546 -179 l 506 -179 l 506 108 q 483 65 425 29 q 368 -7 297 -7 q 228 -7 172 27 q 116 61 82 117 q 49 174 49 243 q 49 312 82 369 q 116 426 172 460 q 228 494 297 494 q 368 494 425 458 q 483 422 506 379 l 506 469 l 546 469 z"},"d":{"x_min":0,"x_max":594,"ha":594,"o":"m 297 33 q 354 33 401 62 q 448 90 476 138 q 504 186 504 243 q 504 301 477 349 q 449 397 401 425 q 354 453 297 453 q 239 453 192 425 q 145 397 117 349 q 89 301 89 243 q 89 186 117 138 q 145 90 192 62 q 239 33 297 33 z m 297 -7 q 228 -7 172 27 q 116 61 82 117 q 49 174 49 243 q 49 312 82 369 q 116 426 172 460 q 228 494 297 494 q 368 494 425 458 q 482 422 505 380 l 505 688 l 545 688 l 545 -5 l 505 -5 l 505 106 q 482 64 425 29 q 368 -7 297 -7 z"},"1":{"x_min":0,"x_max":203,"ha":203,"o":"m 154 -7 l 114 -7 l 114 623 l 80 581 l 49 606 l 126 703 l 154 703 z"},"5":{"x_min":0,"x_max":575,"ha":575,"o":"m 278 -24 q 209 -24 150 11 q 92 46 59 108 l 49 126 l 84 146 q 103 109 122 87 q 141 64 170 46 q 220 16 278 16 q 334 16 382 44 q 429 72 457 120 q 485 168 485 226 q 485 284 457 332 q 429 380 382 408 q 334 436 278 436 q 231 436 190 417 q 160 402 142 388 q 124 373 104 348 l 66 348 l 66 702 l 449 702 l 449 662 l 107 662 l 107 407 q 175 477 278 477 q 346 477 402 443 q 458 409 492 352 q 526 295 526 226 q 526 157 492 100 q 458 43 402 10 q 346 -24 278 -24 z"}}}
